# xmcd CD database file
#
# Track frame offsets:
#	150
#	11557
#	23912
#	36161
#	49592
#	63306
#	77780
#	90645
#	102517
#	114213
#	126445
#	139485
#	151811
#	165169
#	177396
#	189899
#	202432
#	213927
#	225528
#
# Disc length: 3190 seconds
#
# Revision: 0
# Processed by: cddbd v1.5.1PL0 Copyright (c) Steve Scherf et al.
# Submitted via: CDex 1.51
#
DISCID=fc0c7413
DTITLE=Blind Lemon Jefferson - Cat Man Blues
DYEAR=2001
DGENRE=Blues
TTITLE0='Lectric Chair Blues
TTITLE1=How Long, How Long
TTITLE2=D.B. Blues
TTITLE3=Maltes Cat Blues
TTITLE4=Fe´nce Breakin' Yellin' Blues
TTITLE5=Cat Man Blues
TTITLE6=Booger Rooger Blues
TTITLE7=Black Snake Dream Blues
TTITLE8=Wher Shall I Be
TTITLE9=Chinch Bug Blues
TTITLE10=Deceitful Brownskin Woman
TTITLE11=Rambler Blues
TTITLE12=Wartime Blues
TTITLE13=Weary Dog Blues
TTITLE14=Gone Dead On You Blues
TTITLE15=One Dime Blues
TTITLE16=Lemon's Cannibal Moan
TTITLE17=Eagle eyed Mama
TTITLE18=Big Night Blues
EXTD=YEAR: 2001
EXTT0=
EXTT1=
EXTT2=
EXTT3=
EXTT4=
EXTT5=
EXTT6=
EXTT7=
EXTT8=
EXTT9=
EXTT10=
EXTT11=
EXTT12=
EXTT13=
EXTT14=
EXTT15=
EXTT16=
EXTT17=
EXTT18=
PLAYORDER=
